<svg xmlns="http://www.w3.org/2000/svg" viewBox="0 0 45 45">
  <defs>
    <linearGradient id="b" x1="0.25" y1="0.05" x2="0.85" y2="1">
      <stop offset="0%" stop-color="#5A4540"/>
      <stop offset="50%" stop-color="#2E211C"/>
      <stop offset="100%" stop-color="#0A0507"/>
    </linearGradient>
    <radialGradient id="h" cx="0.3" cy="0.2" r="0.55">
      <stop offset="0%" stop-color="#F4ECD8" stop-opacity="0.25"/>
      <stop offset="100%" stop-color="#F4ECD8" stop-opacity="0"/>
    </radialGradient>
    <filter id="dr" x="-20%" y="-10%" width="140%" height="130%">
      <feGaussianBlur in="SourceAlpha" stdDeviation="0.7"/>
      <feOffset dy="0.8"/>
      <feComponentTransfer><feFuncA type="linear" slope="0.55"/></feComponentTransfer>
      <feMerge><feMergeNode/><feMergeNode in="SourceGraphic"/></feMerge>
    </filter>
  </defs>
  <g filter="url(#dr)" stroke="#F4ECD8" stroke-width="1.4" stroke-linejoin="round" fill="url(#b)">
    <ellipse cx="22.5" cy="41" rx="11.5" ry="1.8"/>
    <path d="M 11.5 37 Q 11.5 39.5 14 40 L 31 40 Q 33.5 39.5 33.5 37 L 30 35.5 L 15 35.5 Z"/>
    <path d="M 15 33.5 L 30 33.5 L 30 35.5 L 15 35.5 Z"/>
    <path d="M 13.5 17 Q 12 26 14 33.5 L 31 33.5 Q 33 26 31.5 17 Q 28 18.5 22.5 18.5 Q 17 18.5 13.5 17 Z"/>
    <path d="M 13.5 13 L 31.5 13 L 31 17 L 14 17 Z"/>
    <path d="M 13.5 13 L 14 9.5 L 16.5 11 L 18 8 L 19.5 11 L 22.5 7.5 L 25.5 11 L 27 8 L 28.5 11 L 31 9.5 L 31.5 13 Z"/>
  </g>
  <!-- Cross above crown: bold, layered -->
  <g stroke-linejoin="round" stroke-linecap="round">
    <rect x="21.4" y="2" width="2.2" height="7.5" fill="#D4AF6F" stroke="#F4ECD8" stroke-width="0.9"/>
    <rect x="18.5" y="3.8" width="8" height="1.8" fill="#D4AF6F" stroke="#F4ECD8" stroke-width="0.9"/>
  </g>
  <circle cx="18" cy="15" r="0.85" fill="#D4AF6F" stroke="#F4ECD8" stroke-width="0.4"/>
  <circle cx="22.5" cy="15" r="1.15" fill="#D4AF6F" stroke="#F4ECD8" stroke-width="0.4"/>
  <circle cx="27" cy="15" r="0.85" fill="#D4AF6F" stroke="#F4ECD8" stroke-width="0.4"/>
  <path d="M 13.5 17 L 31.5 17" stroke="#D4AF6F" stroke-width="0.5"/>
  <path d="M 22.5 19 L 22.5 33" stroke="#F4ECD8" stroke-width="0.5" opacity="0.3"/>
  <ellipse cx="17.5" cy="22" rx="2.2" ry="6" fill="url(#h)"/>
</svg>
