<svg xmlns="http://www.w3.org/2000/svg" viewBox="0 0 45 45">
  <defs>
    <linearGradient id="b" x1="0.25" y1="0.05" x2="0.85" y2="1">
      <stop offset="0%" stop-color="#5A4540"/>
      <stop offset="50%" stop-color="#2E211C"/>
      <stop offset="100%" stop-color="#0A0507"/>
    </linearGradient>
    <radialGradient id="h" cx="0.3" cy="0.25" r="0.55">
      <stop offset="0%" stop-color="#F4ECD8" stop-opacity="0.28"/>
      <stop offset="100%" stop-color="#F4ECD8" stop-opacity="0"/>
    </radialGradient>
    <filter id="dr" x="-20%" y="-10%" width="140%" height="130%">
      <feGaussianBlur in="SourceAlpha" stdDeviation="0.7"/>
      <feOffset dy="0.8"/>
      <feComponentTransfer><feFuncA type="linear" slope="0.55"/></feComponentTransfer>
      <feMerge><feMergeNode/><feMergeNode in="SourceGraphic"/></feMerge>
    </filter>
  </defs>
  <g filter="url(#dr)" stroke="#F4ECD8" stroke-width="1.4" stroke-linejoin="round" fill="url(#b)">
    <ellipse cx="22.5" cy="41" rx="10.5" ry="1.8"/>
    <path d="M 12.5 37 Q 12.5 39.5 15 40 L 30 40 Q 32.5 39.5 32.5 37 L 30 35.5 L 15 35.5 Z"/>
    <path d="M 15.5 33.5 L 29.5 33.5 L 30 35.5 L 15 35.5 Z"/>
    <path d="M 17.5 21 Q 15.5 28 15.5 33.5 L 29.5 33.5 Q 29.5 28 27.5 21 Q 25.5 22.5 22.5 22.5 Q 19.5 22.5 17.5 21 Z"/>
    <ellipse cx="22.5" cy="20.5" rx="5" ry="1.4"/>
    <path d="M 18 19 Q 17.5 13 19.5 8 Q 21 4.5 22.5 3.8 Q 24 4.5 25.5 8 Q 27.5 13 27 19 Z"/>
    <circle cx="22.5" cy="2.8" r="1.9"/>
  </g>
  <path d="M 19.8 14 L 25.2 9.2" stroke="#F4ECD8" stroke-width="1.5" stroke-linecap="round" fill="none"/>
  <ellipse cx="22.5" cy="20.5" rx="5" ry="1.4" fill="none" stroke="#D4AF6F" stroke-width="0.6"/>
  <ellipse cx="20.7" cy="9" rx="1.4" ry="3" fill="url(#h)"/>
</svg>
