<svg xmlns="http://www.w3.org/2000/svg" viewBox="0 0 45 45">
  <g fill="#1B1410" stroke="#F4ECD8" stroke-width="1.5" stroke-linejoin="round">
    <path d="M 22 9 Q 28 9 31 13 L 34 19 Q 35 23 32 26 L 32 30 L 13 30 L 13 27 Q 11 24 14 21 Q 17 19 19 19 L 18 13 Q 19 10 22 9 Z"/>
    <rect x="12" y="30" width="21" height="3"/>
    <ellipse cx="22.5" cy="34.5" rx="12" ry="1.8"/>
  </g>
  <path d="M 25 11 L 26 17 L 31 16" stroke="#F4ECD8" stroke-width="1.1" fill="none" stroke-linecap="round"/>
  <circle cx="28" cy="17" r="0.9" fill="#F4ECD8"/>
  <circle cx="32" cy="22" r="0.6" fill="#F4ECD8"/>
  <path d="M 23 9 Q 20 4 22 2 Q 24 3 24 9 Z" fill="#D4AF6F" stroke="#F4ECD8" stroke-width="1"/>
  <path d="M 27 21 L 33 22" stroke="#D4AF6F" stroke-width="0.8"/>
</svg>
