<svg xmlns="http://www.w3.org/2000/svg" viewBox="0 0 45 45">
  <defs>
    <linearGradient id="b" x1="0.25" y1="0.05" x2="0.85" y2="1">
      <stop offset="0%" stop-color="#5A4540"/>
      <stop offset="50%" stop-color="#2E211C"/>
      <stop offset="100%" stop-color="#0A0507"/>
    </linearGradient>
    <radialGradient id="h" cx="0.32" cy="0.22" r="0.55">
      <stop offset="0%" stop-color="#F4ECD8" stop-opacity="0.32"/>
      <stop offset="100%" stop-color="#F4ECD8" stop-opacity="0"/>
    </radialGradient>
    <filter id="dr" x="-20%" y="-10%" width="140%" height="130%">
      <feGaussianBlur in="SourceAlpha" stdDeviation="0.7"/>
      <feOffset dy="0.8"/>
      <feComponentTransfer><feFuncA type="linear" slope="0.55"/></feComponentTransfer>
      <feMerge><feMergeNode/><feMergeNode in="SourceGraphic"/></feMerge>
    </filter>
  </defs>
  <g filter="url(#dr)" stroke="#F4ECD8" stroke-width="1.4" stroke-linejoin="round" fill="url(#b)">
    <ellipse cx="22.5" cy="40.5" rx="10" ry="2"/>
    <path d="M 13 36.5 Q 13 39 15.5 39.5 L 29.5 39.5 Q 32 39 32 36.5 L 30 35 L 15 35 Z"/>
    <path d="M 16 33 L 29 33 L 30 35 L 15 35 Z"/>
    <path d="M 18 19.5 Q 16 27 16 33 L 29 33 Q 29 27 27 19.5 Q 25 21 22.5 21 Q 20 21 18 19.5 Z"/>
    <ellipse cx="22.5" cy="18.5" rx="4.6" ry="1.4"/>
    <circle cx="22.5" cy="13" r="4.2"/>
  </g>
  <ellipse cx="20.7" cy="11" rx="1.8" ry="2.4" fill="url(#h)"/>
  <line x1="16" y1="33" x2="29" y2="33" stroke="#F4ECD8" stroke-width="0.5" opacity="0.4"/>
</svg>
