<svg xmlns="http://www.w3.org/2000/svg" viewBox="0 0 45 45">
  <g fill="#1B1410" stroke="#F4ECD8" stroke-width="1.5" stroke-linejoin="round">
    <path d="M 13 11 L 15 6 L 17.5 9 L 20 4 L 22.5 7 L 25 4 L 27.5 9 L 30 6 L 32 11 L 32 13 L 13 13 Z"/>
    <circle cx="22.5" cy="17" r="2.7"/>
    <path d="M 17 20 L 12 32 L 33 32 L 28 20 Q 26 22 22.5 22 Q 19 22 17 20 Z"/>
    <rect x="11" y="32" width="23" height="3"/>
    <ellipse cx="22.5" cy="36.5" rx="13" ry="1.8"/>
  </g>
  <circle cx="15" cy="6" r="0.9" fill="#D4AF6F" stroke="#F4ECD8" stroke-width="0.4"/>
  <circle cx="20" cy="4" r="0.9" fill="#D4AF6F" stroke="#F4ECD8" stroke-width="0.4"/>
  <circle cx="22.5" cy="7" r="1.3" fill="#D4AF6F" stroke="#F4ECD8" stroke-width="0.4"/>
  <circle cx="25" cy="4" r="0.9" fill="#D4AF6F" stroke="#F4ECD8" stroke-width="0.4"/>
  <circle cx="30" cy="6" r="0.9" fill="#D4AF6F" stroke="#F4ECD8" stroke-width="0.4"/>
  <path d="M 16 22 L 30 30" stroke="#D4AF6F" stroke-width="1.4" fill="none"/>
  <circle cx="23" cy="26" r="1" fill="#D4AF6F" stroke="#F4ECD8" stroke-width="0.6"/>
</svg>
