<svg xmlns="http://www.w3.org/2000/svg" viewBox="0 0 45 45">
  <defs>
    <linearGradient id="b" x1="0.25" y1="0.05" x2="0.85" y2="1">
      <stop offset="0%" stop-color="#5A4540"/>
      <stop offset="50%" stop-color="#2E211C"/>
      <stop offset="100%" stop-color="#0A0507"/>
    </linearGradient>
    <radialGradient id="h" cx="0.3" cy="0.2" r="0.55">
      <stop offset="0%" stop-color="#F4ECD8" stop-opacity="0.25"/>
      <stop offset="100%" stop-color="#F4ECD8" stop-opacity="0"/>
    </radialGradient>
    <filter id="dr" x="-20%" y="-10%" width="140%" height="130%">
      <feGaussianBlur in="SourceAlpha" stdDeviation="0.7"/>
      <feOffset dy="0.8"/>
      <feComponentTransfer><feFuncA type="linear" slope="0.55"/></feComponentTransfer>
      <feMerge><feMergeNode/><feMergeNode in="SourceGraphic"/></feMerge>
    </filter>
  </defs>
  <g filter="url(#dr)" stroke="#F4ECD8" stroke-width="1.4" stroke-linejoin="round" fill="url(#b)">
    <ellipse cx="22.5" cy="41" rx="11" ry="1.8"/>
    <path d="M 12 37 Q 12 39.5 14.5 40 L 30.5 40 Q 33 39.5 33 37 L 30 35.5 L 15 35.5 Z"/>
    <path d="M 15 33.5 L 30 33.5 L 30 35.5 L 15 35.5 Z"/>
    <path d="M 16 19 Q 14.5 26 15 33.5 L 30 33.5 Q 30.5 26 29 19 Z"/>
    <path d="M 14.5 16 L 30.5 16 L 30 19 L 15 19 Z"/>
    <rect x="13.5" y="11.5" width="18" height="4.5"/>
    <path d="M 13.5 11.5 L 13.5 5 L 17.5 5 L 17.5 8.5 L 20.5 8.5 L 20.5 5 L 24.5 5 L 24.5 8.5 L 27.5 8.5 L 27.5 5 L 31.5 5 L 31.5 11.5 Z"/>
  </g>
  <line x1="13.5" y1="11.5" x2="31.5" y2="11.5" stroke="#F4ECD8" stroke-width="0.5" opacity="0.5"/>
  <line x1="14.5" y1="16" x2="30.5" y2="16" stroke="#F4ECD8" stroke-width="0.5" opacity="0.5"/>
  <line x1="15" y1="33.5" x2="30" y2="33.5" stroke="#F4ECD8" stroke-width="0.5" opacity="0.5"/>
  <line x1="14.7" y1="17.5" x2="30.3" y2="17.5" stroke="#D4AF6F" stroke-width="0.7"/>
  <ellipse cx="19" cy="22" rx="2.2" ry="5" fill="url(#h)"/>
</svg>
