<svg xmlns="http://www.w3.org/2000/svg" viewBox="0 0 45 45">
  <g fill="#F4ECD8" stroke="#1B1410" stroke-width="1.5" stroke-linejoin="round">
    <path d="M 18 5 Q 22.5 2 27 5 L 27 12 L 18 12 Z"/>
    <ellipse cx="22.5" cy="13" rx="6.5" ry="1.6"/>
    <circle cx="22.5" cy="17" r="2.7"/>
    <path d="M 16 20 L 14 31 L 31 31 L 29 20 Q 27 22 22.5 22 Q 18 22 16 20 Z"/>
    <rect x="12" y="31" width="21" height="3"/>
    <ellipse cx="22.5" cy="35.5" rx="12" ry="1.8"/>
  </g>
  <path d="M 22.5 5 Q 21 2 22.5 0 Q 24 2 22.5 5 Z" fill="#D4AF6F" stroke="#1B1410" stroke-width="0.8"/>
  <line x1="17" y1="22" x2="28" y2="28" stroke="#D4AF6F" stroke-width="1"/>
  <circle cx="22.5" cy="24" r="0.7" fill="#D4AF6F"/>
  <circle cx="22.5" cy="27" r="0.7" fill="#D4AF6F"/>
</svg>
