<svg xmlns="http://www.w3.org/2000/svg" viewBox="0 0 45 45">
  <g fill="#F4ECD8" stroke="#1B1410" stroke-width="1.5" stroke-linejoin="round">
    <ellipse cx="22.5" cy="10" rx="14" ry="4.2"/>
    <circle cx="22.5" cy="17" r="3"/>
    <path d="M 16 20 L 13 32 L 32 32 L 29 20 Q 27 22 22.5 22 Q 18 22 16 20 Z"/>
    <rect x="11" y="32" width="23" height="3"/>
    <ellipse cx="22.5" cy="36.5" rx="13" ry="1.8"/>
  </g>
  <path d="M 9 9 Q 22.5 12 36 9" stroke="#1B1410" stroke-width="0.9" fill="none"/>
  <circle cx="14" cy="9" r="1.5" fill="#D4AF6F" stroke="#1B1410" stroke-width="0.7"/>
  <path d="M 19 4.5 L 20.5 6 L 22.5 3 L 24.5 6 L 26 4.5" stroke="#D4AF6F" stroke-width="1.2" fill="none" stroke-linecap="round"/>
  <circle cx="22.5" cy="3" r="0.8" fill="#D4AF6F"/>
  <path d="M 22.5 23 L 22.5 30" stroke="#1B1410" stroke-width="0.7"/>
  <circle cx="22.5" cy="24.5" r="0.6" fill="#D4AF6F"/>
  <circle cx="22.5" cy="27" r="0.6" fill="#D4AF6F"/>
  <circle cx="22.5" cy="29.5" r="0.6" fill="#D4AF6F"/>
  <line x1="15" y1="24" x2="29" y2="30" stroke="#D4AF6F" stroke-width="1.4"/>
</svg>
