<svg xmlns="http://www.w3.org/2000/svg" viewBox="0 0 45 45">
  <defs>
    <linearGradient id="b" x1="0.25" y1="0.05" x2="0.85" y2="1">
      <stop offset="0%" stop-color="#FFFCF0"/>
      <stop offset="50%" stop-color="#F4ECD8"/>
      <stop offset="100%" stop-color="#A89677"/>
    </linearGradient>
    <radialGradient id="h" cx="0.3" cy="0.2" r="0.55">
      <stop offset="0%" stop-color="#FFFFFF" stop-opacity="0.55"/>
      <stop offset="100%" stop-color="#FFFFFF" stop-opacity="0"/>
    </radialGradient>
    <filter id="dr" x="-20%" y="-10%" width="140%" height="130%">
      <feGaussianBlur in="SourceAlpha" stdDeviation="0.7"/>
      <feOffset dy="0.8"/>
      <feComponentTransfer><feFuncA type="linear" slope="0.55"/></feComponentTransfer>
      <feMerge><feMergeNode/><feMergeNode in="SourceGraphic"/></feMerge>
    </filter>
  </defs>
  <g filter="url(#dr)" stroke="#1B1410" stroke-width="1.4" stroke-linejoin="round" fill="url(#b)">
    <ellipse cx="22.5" cy="41" rx="11" ry="1.8"/>
    <path d="M 12 37 Q 12 39.5 14.5 40 L 30.5 40 Q 33 39.5 33 37 L 30 35.5 L 15 35.5 Z"/>
    <path d="M 15 33.5 L 30 33.5 L 30 35.5 L 15 35.5 Z"/>
    <path d="M 14 18 Q 13 26 14.5 33.5 L 30.5 33.5 Q 32 26 31 18 Q 28 19.5 22.5 19.5 Q 17 19.5 14 18 Z"/>
    <ellipse cx="22.5" cy="17" rx="9" ry="2"/>
    <path d="M 13.5 14.5 L 14 11 L 16 13 L 17.5 9 L 19 12 L 21 8 L 22.5 11.5 L 24 8 L 26 12 L 27.5 9 L 29 13 L 31 11 L 31.5 14.5 Z"/>
  </g>
  <circle cx="14" cy="11" r="1.1" fill="url(#b)" stroke="#1B1410" stroke-width="0.9"/>
  <circle cx="17.5" cy="9" r="1.1" fill="url(#b)" stroke="#1B1410" stroke-width="0.9"/>
  <circle cx="21" cy="8" r="1.1" fill="url(#b)" stroke="#1B1410" stroke-width="0.9"/>
  <circle cx="24" cy="8" r="1.1" fill="url(#b)" stroke="#1B1410" stroke-width="0.9"/>
  <circle cx="27.5" cy="9" r="1.1" fill="url(#b)" stroke="#1B1410" stroke-width="0.9"/>
  <circle cx="31" cy="11" r="1.1" fill="url(#b)" stroke="#1B1410" stroke-width="0.9"/>
  <circle cx="22.5" cy="11.5" r="1.2" fill="#D4AF6F" stroke="#1B1410" stroke-width="0.6"/>
  <line x1="14" y1="14.5" x2="31" y2="14.5" stroke="#1B1410" stroke-width="0.6"/>
  <ellipse cx="22.5" cy="17" rx="9" ry="2" fill="none" stroke="#D4AF6F" stroke-width="0.5"/>
  <ellipse cx="18" cy="22" rx="2" ry="5" fill="url(#h)"/>
</svg>
